<?xml version="1.0" encoding="utf-8"?>
<!-- Generator: Adobe Illustrator 27.9.0, SVG Export Plug-In . SVG Version: 6.00 Build 0)  -->
<svg version="1.1" id="Layer_1" xmlns="http://www.w3.org/2000/svg" xmlns:xlink="http://www.w3.org/1999/xlink" x="0px" y="0px"
	 viewBox="0 0 100 100" style="enable-background:new 0 0 100 100;" xml:space="preserve">
<style type="text/css">
	.st0{fill:#071A15;}
</style>
<path class="st0" d="M21.37,72.8c0-0.01-0.03-0.06-0.09-0.15c-0.26-0.4-1.13-0.88-1.5-1.38c-0.73-0.96-0.66-2.37-1.27-3.47
	c-0.14-0.26-0.36-0.45-0.65-0.58c-1.3-0.56-1.58-1.43-0.83-2.59c0.07-0.1,0.08-0.22,0.03-0.32c-1.8-4.29-2.9-6.95-3.17-11.12
	c0-0.07-0.02-0.13-0.07-0.18c-0.06-0.08-0.11-0.15-0.17-0.22c-0.07-0.08-0.06-0.15,0.02-0.2l0.09-0.07
	c0.05-0.03,0.07-0.08,0.07-0.13c0.04-1.53,0.04-2.95,0.34-4.52c0.11-0.6,0.19-1.2,0.22-1.8c0.05-0.78-0.5-1.24-0.64-1.83
	c-1.02-4.31-2.73-8.6-0.22-12.73c2.68-4.43,10.69-7.33,15.82-8.34c1.37-0.27,2.61-0.77,3.73-1.51c0.46-0.3,0.87-0.77,1.25-1.4
	c1.55-2.61,3.71-4.6,6.47-5.99c2.39-1.19,5.38-1.29,8.09-1.25c0.16,0,0.28-0.11,0.29-0.26l0,0V10.1c0-0.06,0.05-0.11,0.12-0.11
	c0.02,0,0.04,0,0.05,0.01c0.05,0.03,0.1,0.05,0.15,0.07c0.04,0.02,0.06,0.05,0.06,0.08l0.02,2.6c0,0.15,0.08,0.23,0.25,0.24
	c2.21,0.02,4.3-0.16,6.42,0.5c3.63,1.13,6.99,4.79,8.74,7.84c0.07,0.12,0.16,0.21,0.28,0.27c0.77,0.39,1.53,0.8,2.28,1.23
	c0.74,0.42,1.56,0.76,2.46,1c5.6,1.49,13.16,3.89,16.74,8.7c0.08,0.1,0.19,0.18,0.32,0.22c2.4,0.71,2.48,3.23,0.27,4.24
	c-0.12,0.06-0.2,0.15-0.22,0.28c-0.58,3.3-1.02,6.01-2.59,8.74c-0.07,0.11-0.09,0.23-0.07,0.36c0.65,3.87,0.58,7.72-0.21,11.54
	c-0.12,0.56-0.11,1.13,0.02,1.7c0.79,3.4,0.3,5.73-0.7,9.2c-0.42,1.45-0.94,2.6-1.56,3.44c-2.98,4.06-7.66,5.38-12.78,5.64
	c-0.15,0.01-0.3,0.05-0.43,0.13c-2.99,1.84-6.19,3.27-9.6,4.29c-0.15,0.05-0.28,0.13-0.39,0.24c-2.41,2.48-5.41,3.86-9.02,4.12
	c-0.15,0.01-0.23,0.08-0.23,0.22c-0.01,0.96-0.02,1.92-0.02,2.88c0,0.1-0.06,0.17-0.17,0.2c-0.09,0.03-0.18-0.02-0.21-0.1
	c-0.01-0.01-0.01-0.03-0.01-0.05l-0.02-2.94c0-0.14-0.08-0.23-0.23-0.25c-3.23-0.47-6.07-1.68-8.52-3.63
	c-0.53-0.42-1.09-0.73-1.7-0.94c-3.18-1.09-6.14-2.54-8.89-4.37c-0.11-0.08-0.25-0.12-0.39-0.11c-1.69,0.09-3.34-0.13-4.93-0.68
	c-0.12-0.04-0.24-0.04-0.37,0c-1.66,0.58-2.34-0.32-3.68-0.7c-3.55-1.01-6.81-2.84-8.73-5.85c-0.7-1.09-0.76-2.58-1.79-3.53
	c-1.2-1.11-1.26-2.4-0.13-3.82c0.08-0.1,0.12-0.2,0.13-0.32l0.56-5.18c0.01-0.05,0.03-0.07,0.09-0.06c0.04,0.01,0.08,0.02,0.12,0.02
	c0.05,0.01,0.07,0.03,0.07,0.08c0.07,2.19,0.37,3.81,0.91,4.85c0.72,1.42,1.18,2.95,2.13,4.18c1.95,2.55,4.39,4.68,7.32,6.39
	C21.32,73.1,21.41,73.04,21.37,72.8z M40.38,18.93c2.1-2.38,5.31-3.61,8.56-3.89c0.16-0.02,0.24-0.1,0.24-0.25v-1.11
	c0-0.15-0.08-0.23-0.25-0.24c-2.78-0.1-4.87,0.06-6.26,0.47c-3.64,1.09-6.37,3.93-8.34,6.86c-0.05,0.06-0.03,0.15,0.04,0.19
	c0.04,0.03,0.1,0.03,0.15,0.01c1.52-0.68,3.12-1.18,4.81-1.52C39.7,19.38,40.2,19.14,40.38,18.93z M49.85,15.04
	c3.18,0.25,5.97,1.53,8.24,3.6c0.41,0.37,0.87,0.64,1.37,0.79c1.61,0.5,3.21,1.06,4.79,1.69c0.19,0.08,0.24,0.03,0.13-0.14
	c-1.69-2.77-5.41-6.72-8.96-7.37c-1.56-0.29-3.44-0.34-5.66-0.14c-0.11,0.01-0.16,0.07-0.17,0.17v1.14
	C49.59,14.94,49.68,15.02,49.85,15.04z M48.98,15.38c-2.99,0.28-5.62,1.31-7.86,3.24c-0.35,0.31-0.29,0.42,0.18,0.35
	c2.55-0.4,5.1-0.58,7.68-0.53c0.12,0,0.22-0.08,0.22-0.19l0,0l-0.01-2.69C49.19,15.42,49.12,15.36,48.98,15.38z M57.92,18.92
	c-2.18-1.95-5.07-3.33-8.12-3.54c-0.12-0.01-0.18,0.04-0.18,0.16l-0.02,2.68c0,0.11,0.09,0.2,0.21,0.21l8.02,0.69
	C58.05,19.14,58.09,19.07,57.92,18.92z M39.12,23.51c0.73-0.05,2.04-0.04,2.59-0.4c2.28-1.47,4.7-2.31,7.26-2.52
	c0.15-0.01,0.22-0.08,0.22-0.22l-0.01-1.36c0-0.13-0.07-0.19-0.2-0.19c-2.76-0.06-5.49,0.15-8.19,0.62
	c-1.46,0.25-1.85,2.84-1.93,3.83c-0.01,0.12,0.09,0.23,0.22,0.24C39.09,23.51,39.1,23.51,39.12,23.51z M49.8,20.63
	c3.56,0.45,6.97,1.68,9.96,3.51c0.11,0.07,0.21,0.06,0.31-0.02c1.04-0.88,2.16-1.03,3.35-0.47c0.86,0.41,1.42,0.42,2.31,0.52
	c0.15,0.02,0.2-0.04,0.16-0.17c-0.17-0.58-0.42-1.12-0.76-1.6c-0.3-0.44-0.77-0.8-1.41-1.07c-4.45-1.94-8.53-2.2-13.91-2.45
	c-0.14-0.01-0.21,0.06-0.21,0.18l-0.02,1.34C49.58,20.53,49.65,20.61,49.8,20.63z M39.27,19.82c-1.17,0.26-4.81,1.22-5.41,2.1
	c-0.27,0.4-0.61,1.15-1.01,2.26c-0.04,0.1,0,0.14,0.11,0.12l5.37-0.84c0.1-0.02,0.16-0.07,0.17-0.17c0.09-1.16,0.4-2.26,0.92-3.31
	C39.49,19.84,39.44,19.79,39.27,19.82z M48.98,20.96c-2.32,0.14-4.72,0.98-6.68,2.13c-0.2,0.12-0.18,0.18,0.05,0.2
	c2.2,0.11,4.39,0.04,6.58-0.19c0.17-0.02,0.26-0.11,0.26-0.27v-1.7C49.19,21.01,49.12,20.95,48.98,20.96z M59.5,24.36
	c-2.94-1.75-6.15-2.87-9.63-3.37c-0.13-0.02-0.25,0.06-0.27,0.18c0,0.01,0,0.02,0,0.03v1.74c0,0.11,0.06,0.18,0.18,0.19
	c3.27,0.31,6.48,0.9,9.63,1.77c0.17,0.04,0.27-0.01,0.32-0.16l0.07-0.22c0.03-0.08,0-0.13-0.1-0.13
	C59.61,24.4,59.54,24.38,59.5,24.36z M33.27,22.27c0.13-0.3,0.05-0.37-0.25-0.2c-1.89,1.09-3.67,2.3-5.36,3.65
	c-0.88,0.7-0.79,0.81,0.24,0.33c1.28-0.6,2.62-1.04,4.02-1.33c0.17-0.04,0.32-0.15,0.39-0.3L33.27,22.27z M70.06,24.98
	c-1.36-0.98-2.77-1.88-4.25-2.7c-0.07-0.04-0.15-0.02-0.19,0.05c-0.02,0.04-0.03,0.08-0.01,0.12l0.87,1.71
	c0.06,0.13,0.17,0.2,0.32,0.22c1.08,0.14,2.1,0.43,3.06,0.87C70.92,25.74,70.98,25.65,70.06,24.98z M13.24,39.68
	c1.19-5.01,5.65-9.13,10.58-11.47c2.41-1.14,3.83-3.17,6.05-4.56c0.06-0.04,0.09-0.11,0.05-0.17c-0.03-0.05-0.09-0.07-0.15-0.06
	c-4.19,0.83-8.15,2.34-11.87,4.54c-4.61,2.73-6.22,6.64-4.82,11.72C13.13,39.89,13.19,39.89,13.24,39.68z M48.43,23.87
	c0.09,0.06,0.19,0.11,0.31,0.15c0.16,0.05,0.34-0.04,0.39-0.19c0.04-0.14-0.02-0.28-0.16-0.34c-0.33-0.13-0.69-0.09-1.08,0.12
	c-0.2,0.1-0.18,0.16,0.04,0.17l0.27,0.02C48.28,23.8,48.36,23.82,48.43,23.87z M39.06,25.31l5.09-1.51c0.01,0,0.01-0.01,0.01-0.02
	l-0.02-0.05c-0.11-0.34-1.33-0.28-2.71,0.13l0,0l-0.11,0.03c-1.38,0.41-2.41,1.01-2.29,1.35l0.02,0.05
	C39.04,25.31,39.05,25.31,39.06,25.31L39.06,25.31z M49.71,24.19c2.07,0.97,3.8,1.85,5.28,3.59c0.08,0.1,0.2,0.17,0.34,0.2
	c1.96,0.41,3.83,1.06,5.61,1.93c0.03,0.02,0.07,0.01,0.09-0.01c0.02-0.03,0.02-0.06-0.01-0.08c-1.53-1.57-3.16-3.03-4.9-4.35
	c-1.94-1.48-3.87-1.95-6.27-1.86c-0.18,0-0.33,0.15-0.32,0.32C49.52,24.03,49.59,24.14,49.71,24.19z M38.9,24.73l1.4-0.74
	c0.04-0.02,0.05-0.07,0.03-0.11l0,0l-0.02-0.03c-0.16-0.27-0.61-0.31-1.01-0.11l0,0l-0.12,0.07c-0.39,0.21-0.58,0.59-0.41,0.86
	l0.02,0.03C38.81,24.74,38.86,24.75,38.9,24.73z M31.33,29.03l7-3.74c0.39-0.21,0.52-0.68,0.3-1.04c-0.17-0.28-0.51-0.42-0.85-0.37
	l-5.16,0.88c-0.18,0.03-0.32,0.15-0.37,0.3l-1.21,3.75c-0.03,0.1,0.02,0.21,0.13,0.24C31.22,29.06,31.28,29.05,31.33,29.03z
	 M38.08,29.76c3.44-1.55,7.08-2.34,10.92-2.38c0.11,0,0.2-0.08,0.2-0.19l0,0l-0.03-2.5c0-0.14-0.07-0.23-0.2-0.29
	c-4.85-2.05-8.52,2.04-11.03,5.2C37.77,29.83,37.81,29.88,38.08,29.76z M86.25,32.56c-2.78-4.46-11.59-7.12-16.62-8.47
	c-0.02-0.01-0.04,0-0.05,0.02c0,0.01,0,0.03,0.01,0.04c1.68,1.52,3.51,2.86,5.5,4.01c3.36,1.95,6.14,4.2,9.15,6.41
	c0.11,0.08,0.17,0.05,0.21-0.07c0.23-0.84,0.79-1.4,1.68-1.66c0.11-0.03,0.17-0.14,0.14-0.24C86.26,32.58,86.26,32.57,86.25,32.56z
	 M69.49,35.68c-0.12-2.82-3.44-6.23-5.82-7.83c-0.11-0.07-0.22-0.08-0.34-0.04c-2.01,0.72-3.86-0.24-3.87-2.3
	c0-0.14-0.07-0.22-0.21-0.26l-3.71-0.96c-0.06-0.02-0.13,0.02-0.14,0.07c-0.01,0.04,0,0.09,0.04,0.12c2.05,1.52,3.95,3.18,5.71,4.99
	c0.52,0.53,1.12,1,1.83,1.4c2.35,1.34,4.45,2.97,6.31,4.89C69.44,35.91,69.5,35.88,69.49,35.68z M66.53,25.1
	c0.06-0.18-0.4-0.46-1.01-0.62l0,0c-0.62-0.16-1.16-0.14-1.22,0.04s0.4,0.46,1.01,0.62l0,0C65.93,25.31,66.47,25.29,66.53,25.1z
	 M54.39,27.74c0.04,0,0.07-0.02,0.07-0.06c0-0.02,0-0.04-0.02-0.05c-1.31-1.28-2.84-2.28-4.6-2.99c-0.09-0.04-0.19,0-0.23,0.08
	c-0.01,0.02-0.02,0.04-0.02,0.06l-0.03,2.3c0,0.14,0.07,0.22,0.23,0.24L54.39,27.74z M39.02,25.73c-2.8,0.85-4.89,2.51-7.14,4.6
	c-1.4,1.3-1.73,3.02-1.94,4.75c-0.01,0.06,0.04,0.11,0.1,0.12c0.03,0,0.07-0.01,0.1-0.03c1.86-1.75,3.93-3.27,6.21-4.55
	c0.52-0.29,0.96-0.67,1.31-1.14c1.25-1.65,2.7-3.14,4.37-4.46c0.06-0.04,0.06-0.12,0.02-0.17c-0.05-0.05-0.1-0.06-0.15-0.05
	C40.91,25.03,39.71,25.52,39.02,25.73z M72.27,27.1c-0.98-1.24-3.61-1.97-5.31-2.34c-0.1-0.02-0.2,0.04-0.23,0.14
	c-0.01,0.02-0.01,0.05,0,0.07c0.02,0.1,0.06,0.19,0.13,0.27c0.07,0.09,0.21,0.17,0.4,0.22c1.66,0.47,3.27,1.07,4.85,1.81
	c0.06,0.03,0.14,0,0.17-0.05C72.3,27.18,72.3,27.14,72.27,27.1z M17.76,52.36c-0.18-2.35,0.08-4.57,0.76-6.68
	c0.4-1.21,1.75-3.69,4.07-7.42c0.24-0.39,0.38-0.69,0.41-0.91c0.02-0.14,0.07-0.26,0.15-0.38c1.87-2.88,4.29-5.29,7.27-7.24
	c0.23-0.15,0.38-0.39,0.39-0.66c0.09-1.31,0.43-2.57,1.02-3.76c0.04-0.07,0-0.15-0.07-0.18c-0.03-0.01-0.07-0.02-0.1-0.01
	c-3.44,0.81-6.19,2.32-8.68,4.77c-2.04,2.01-3.67,4.26-4.87,6.77c-1.59,3.28-1.97,7.23-2.05,10.89c-0.03,1.7,0.55,3.11,1.14,4.68
	c0.04,0.12,0.11,0.21,0.18,0.25c0.12,0.07,0.24,0.05,0.36-0.06C17.75,52.41,17.76,52.39,17.76,52.36z M64.18,27.5l3.86,2.05
	c0.02,0.01,0.05,0,0.07-0.02c0.01-0.01,0.01-0.02,0-0.03l-1.17-3.51c-0.05-0.16-0.17-0.25-0.35-0.29l-1.61-0.26
	c-0.17-0.03-0.25,0.04-0.25,0.2c0.01,0.58-0.19,1.09-0.61,1.52C63.99,27.3,64.01,27.41,64.18,27.5z M78.33,42.16
	c0.27,0.44,0.47,1.03,0.75,1.53c0.09,0.16,0.16,0.15,0.22-0.02c1.3-4.09,0.52-7.72-2.35-10.9c-1.37-1.52-2.53-2.88-3.49-4.08
	c-0.37-0.48-0.82-0.83-1.34-1.06c-1.46-0.64-2.97-1.2-4.52-1.67c-0.17-0.05-0.24,0.01-0.2,0.17c0.26,0.98,0.57,1.95,0.93,2.91
	c0.53,1.42,1.41,1.79,2.64,2.71c1.14,0.86,2.3,2.22,3.46,4.07C75.74,37.93,77.04,40.04,78.33,42.16z M73.6,28.36
	c0.59,0.73,1.9,2.25,3.92,4.55c2.88,3.28,3.54,7.06,1.97,11.33c-0.04,0.12-0.04,0.25,0.01,0.37c0.9,2.2,1.52,4.46,1.88,6.79
	c0.04,0.26,0.12,0.27,0.24,0.03c0.77-1.51,1.45-3.05,2.05-4.62c0.24-0.64,0.32-1.28,0.22-1.92c-0.24-1.57-0.68-3.09-1.31-4.58
	c-0.06-0.13-0.15-0.24-0.28-0.31c-0.57-0.32-0.8-0.78-0.69-1.39c0.03-0.14,0.01-0.26-0.06-0.39c-2.02-3.81-4.64-7.21-7.86-10.21
	c-0.05-0.05-0.13-0.05-0.19-0.01c-0.12,0.08-0.12,0.16,0,0.24C73.53,28.3,73.57,28.33,73.6,28.36z M29.8,30.68
	c-2.73,1.85-4.91,4.14-6.56,6.89c-0.02,0.04,0,0.1,0.05,0.12c0.04,0.02,0.08,0.01,0.11-0.02c2.01-2.27,4.22-4.33,6.65-6.19
	c0.44-0.34,0.7-0.84,1.17-1.2c0.93-0.71,1.84-1.41,2.72-2.12c0.03-0.03,0.03-0.08,0-0.11c-0.02-0.02-0.06-0.03-0.09-0.02
	C32.28,28.75,30.77,30.02,29.8,30.68z M83.58,39.85l-0.44,0.18c-0.14,0.06-0.21,0.21-0.15,0.34c0.65,1.53,1.08,3.1,1.28,4.74
	c0.02,0.2,0.1,0.22,0.21,0.05c2.45-3.54,1.12-6.89-1.34-9.95c-2.33-2.9-5.2-5.23-8.6-6.98c-0.19-0.1-0.21-0.08-0.06,0.07
	c2.96,2.86,5.4,6.07,7.3,9.62c0.05,0.09,0.16,0.12,0.25,0.08l0,0c0.97-0.46,1.66-0.24,2.06,0.66
	C84.31,39.12,84.08,39.65,83.58,39.85z M14.59,44.87c0.91-6,4.47-11.8,8.97-16.06c0.04-0.04,0.04-0.1-0.01-0.14
	c-0.03-0.03-0.08-0.03-0.12-0.01c-3.92,2.17-8.6,6.17-9.62,10.28c-0.48,1.94-0.27,3.92,0.62,5.95
	C14.52,45.05,14.57,45.05,14.59,44.87z M69.27,33.29c0.46,0.71,2.9,2.05,3.76,2.58c0.25,0.15,0.29,0.11,0.12-0.12
	c-1.26-1.75-2.66-3.4-4.21-4.93c-0.93-0.92-2.15-1.53-3.3-2.23c-0.05-0.04-0.12-0.03-0.16,0.02c-0.04,0.04-0.03,0.11,0.02,0.15l0,0
	C66.94,30.12,68.2,31.64,69.27,33.29z M29.32,33.68c0.29,0.02,0.47-0.1,0.55-0.37L30.25,32c0.07-0.24,0-0.28-0.2-0.11l-2.29,1.91
	c-0.04,0.04-0.05,0.1-0.01,0.14c0.03,0.03,0.09,0.04,0.13,0.02C28.34,33.75,28.81,33.65,29.32,33.68z M71.06,32.06
	c-0.04-0.04-0.1-0.05-0.15-0.02l-0.12,0.08c-0.05,0.03-0.06,0.1-0.02,0.14l0,0l3.79,4.63c0.04,0.04,0.1,0.05,0.15,0.02l0.12-0.08
	c0.05-0.03,0.06-0.1,0.02-0.14l0,0L71.06,32.06z M88.53,34.91c0-0.97-0.85-1.76-1.89-1.76c-1.05,0-1.89,0.79-1.89,1.76
	s0.85,1.76,1.89,1.76S88.53,35.88,88.53,34.91z M82.37,33.85c1.71,1.73,2.99,3.63,3.67,6.1c0.07,0.26,0.14,0.26,0.22,0
	c0.23-0.85,0.37-1.72,0.42-2.6c0.01-0.15-0.07-0.25-0.23-0.28c-1.82-0.36-1.6-1.48-2.64-2.39c-0.4-0.35-0.83-0.68-1.28-0.98
	c-0.05-0.03-0.12-0.03-0.16,0.02C82.33,33.76,82.33,33.81,82.37,33.85z M19.78,45.3c-0.05,0.9,0.42,1.7,0.77,2.6
	c0.03,0.09,0.14,0.14,0.24,0.11c0.04-0.01,0.07-0.03,0.09-0.06c0.84-1.08,1.81-2.05,2.92-2.89c0.1-0.08,0.17-0.18,0.21-0.3
	c1.06-3.17,2.75-6.01,5.06-8.53c0.66-0.71,0.71-1.3,0.53-2.17c-0.02-0.12-0.1-0.17-0.23-0.15c-3.47,0.56-6.34,4.46-7.99,7.23
	C20.72,42.27,19.84,44.2,19.78,45.3z M76.35,40.44c-0.93-3.18-3.82-4.62-6.61-6.25c-0.14-0.08-0.2-0.05-0.17,0.11
	c0.23,1.13,0.25,2,1.05,2.97c3.31,4,5.08,8.57,5.3,13.7c0.01,0.2,0.08,0.22,0.21,0.06c0.51-0.66,0.8-1.54,0.88-2.65
	C77.25,45.37,77.03,42.72,76.35,40.44z M16.61,39.68c0.01-0.02-0.01-0.04-0.03-0.05c-0.01,0-0.03,0-0.04,0.01
	c-0.16,0.12-0.27,0.28-0.34,0.48c-0.72,1.93-1.91,5.67-0.74,7.54c0.14,0.22,0.2,0.2,0.21-0.05C15.69,44.94,16,42.3,16.61,39.68z
	 M77.6,48.6c0,0.01,0,0.01,0,0.02c0,0.01,0,0.01,0,0h-0.01v-0.01c0.55-1.26,1.06-2.55,1.52-3.87c0.03-0.09,0.03-0.19-0.02-0.28
	l-2.13-4.06c-0.04-0.08-0.13-0.11-0.21-0.08s-0.12,0.12-0.09,0.19c0.88,2.45,1.13,4.97,0.76,7.55c-0.03,0.18,0.05,0.36,0.16,0.5
	C77.59,48.57,77.6,48.58,77.6,48.6z M31.5,43.91c-2.32,0.95-4.68,3.48-2.1,5.65c1.19,1,2.5,0.74,3.99,0.17
	c4.99-1.91,10.2-2.89,15.63-2.94c0.09,0,0.17-0.07,0.17-0.16l0,0l-0.01-5.94c0-0.11-0.06-0.17-0.18-0.17
	C42.89,40.5,37.06,41.63,31.5,43.91z M66.25,43.54c-5.37-2.03-10.85-3.04-16.46-3.02c-0.12,0-0.18,0.06-0.18,0.17l-0.02,5.87
	c0,0.14,0.07,0.21,0.22,0.21c5.62,0.12,10.52,1.12,15.74,3.01c1.06,0.38,1.9,0.52,2.51,0.41c1.89-0.34,2.88-2.58,2.02-4.14
	C69.36,44.75,67.75,44.11,66.25,43.54z M19.49,44.85c0.01-0.05-0.03-0.11-0.09-0.12l-0.24-0.04c-0.06-0.01-0.12,0.03-0.13,0.08
	l-1.14,5.51c-0.01,0.05,0.03,0.11,0.09,0.12l0.24,0.04c0.06,0.01,0.12-0.03,0.13-0.08L19.49,44.85z M78.05,48.47
	c-0.03,0.08-0.02,0.17,0.03,0.24l1.73,2.1c0.09,0.11,0.15,0.23,0.18,0.36c0.12,0.54,0.37,1.01,0.77,1.41
	c0.07,0.07,0.19,0.08,0.27,0.01c0.05-0.04,0.07-0.1,0.06-0.15c-0.25-2.33-0.8-4.59-1.63-6.79c-0.02-0.06-0.09-0.1-0.16-0.08
	c-0.04,0.01-0.07,0.04-0.08,0.08L78.05,48.47z M20.99,48.64c0.37,0.76,1.08,1.94,1.72,2.5c0.12,0.11,0.18,0.08,0.18-0.07
	c0.02-1.78,0.3-3.53,0.82-5.24c0.03-0.08-0.02-0.17-0.11-0.19c-0.06-0.02-0.13,0-0.18,0.05l-2.38,2.6
	C20.95,48.39,20.93,48.51,20.99,48.64z M19.46,46.83c-0.27,1.88-0.85,3.34-1.51,5.09c-0.01,0.01,0,0.02,0.01,0.03
	c0.03,0.02,0.07,0.03,0.1,0.03c0.02,0,0.04-0.01,0.06-0.03l2.21-3.35c0.08-0.12,0.09-0.26,0.03-0.39l-0.65-1.41
	c-0.03-0.06-0.11-0.09-0.17-0.06C19.49,46.75,19.46,46.79,19.46,46.83z M84.29,47.24c-0.02-0.31-0.13-0.35-0.35-0.11
	c-0.14,0.16-0.24,0.42-0.28,0.78c-0.18,1.44-0.34,2.89-0.48,4.35c-0.01,0.15,0.06,0.22,0.22,0.23l0.94,0.05
	c0.19,0.01,0.28-0.07,0.27-0.25L84.29,47.24z M14.54,52.55h0.81c0.13,0,0.24-0.1,0.24-0.22l0,0v-0.24c-0.01-2.76-0.28-5-0.6-5.01
	h-0.12c-0.32-0.01-0.57,2.23-0.57,4.99c0,0.01,0,0.01,0,0.02v0.24C14.3,52.46,14.41,52.55,14.54,52.55z M20.84,49.15
	c-0.08-0.13-0.26-0.17-0.39-0.09c-0.04,0.02-0.08,0.06-0.1,0.1l-1.81,2.94c-0.08,0.13-0.03,0.29,0.11,0.36
	c0.04,0.02,0.09,0.03,0.14,0.03l3.86,0.1c0.16,0,0.29-0.11,0.29-0.26c0-0.05-0.01-0.1-0.04-0.15L20.84,49.15z M78.12,49.17
	c-0.08-0.11-0.23-0.15-0.35-0.08c-0.04,0.02-0.07,0.05-0.09,0.09l-1.77,2.98c-0.07,0.12-0.02,0.26,0.11,0.32
	c0.04,0.02,0.08,0.03,0.12,0.03l3.77-0.01c0.14,0,0.26-0.11,0.26-0.24c0-0.04-0.01-0.09-0.04-0.13L78.12,49.17z M82.8,52.31
	l0.16-2.49c0.01-0.05-0.02-0.09-0.07-0.1s-0.1,0.02-0.11,0.06l-1.12,2.51c-0.07,0.16-0.01,0.24,0.17,0.24h0.71
	C82.71,52.53,82.79,52.46,82.8,52.31z M16.15,50.36c-0.02-0.06-0.09-0.1-0.16-0.09c-0.05,0.01-0.09,0.06-0.1,0.11l-0.07,2.01
	c0,0.07,0.05,0.12,0.12,0.12l0,0h0.59c0.07,0,0.13-0.05,0.13-0.12c0-0.01,0-0.02,0-0.03L16.15,50.36z M20.4,57.25
	c0.31-1.84,0.9-2.8,1.9-4.15c0.11-0.15,0.07-0.22-0.12-0.22l-3.43,0.01c-0.44,0-0.79,0.33-0.79,0.74c0,0.09,0.02,0.17,0.05,0.25
	c0.5,1.24,1.22,2.38,2.16,3.43C20.29,57.46,20.37,57.44,20.4,57.25z M81.94,53.2l0.42,0.74c0.14,0.25,0.24,0.24,0.27-0.05l0.1-0.77
	c0.02-0.14-0.05-0.23-0.2-0.25l-0.31-0.04c-0.15-0.02-0.29,0.08-0.31,0.22C81.9,53.1,81.91,53.15,81.94,53.2z M83.46,57.11
	c0.09,0.18,0.21,0.37,0.36,0.54c0.09,0.11,0.14,0.09,0.16-0.04l0.56-4.14c0.06-0.36-0.22-0.7-0.61-0.75
	c-0.34-0.05-0.67,0.15-0.78,0.45C82.69,54.44,82.79,55.76,83.46,57.11z M15.23,59.29c0.01,0.07,0.08,0.13,0.16,0.13
	c0.08-0.01,0.14-0.07,0.14-0.14L15.59,53c0-0.07-0.06-0.13-0.15-0.14h-0.01l-1.08,0.05c-0.08,0-0.14,0.07-0.14,0.14v0.01
	L15.23,59.29z M16.02,53.04l-0.12,1.62c-0.01,0.07,0.05,0.13,0.12,0.13c0.06,0,0.11-0.02,0.13-0.07l0.73-1.48
	c0.05-0.11,0-0.24-0.12-0.29c-0.02-0.01-0.04-0.01-0.07-0.02l-0.45-0.05C16.1,52.86,16.03,52.91,16.02,53.04z M78.5,57.57l2.12-3.73
	c0.18-0.31,0.05-0.7-0.28-0.87c-0.1-0.05-0.21-0.07-0.32-0.07l-3.59-0.02c-0.11,0-0.19,0.08-0.19,0.18c0,0.04,0.01,0.07,0.03,0.1
	c0.99,1.34,1.67,2.8,2.04,4.38c0.01,0.05,0.07,0.08,0.13,0.07C78.46,57.61,78.49,57.59,78.5,57.57z M17.77,53.22
	c-0.13-0.24-0.33-0.28-0.61-0.12c-0.21,0.12-0.2,0.2,0.05,0.22l0.44,0.05c0.06,0.01,0.12-0.04,0.13-0.1
	C17.78,53.26,17.78,53.24,17.77,53.22z M22.57,53.29c-1.03,1.35-1.66,2.85-1.89,4.5c-0.02,0.18,0.01,0.35,0.12,0.5
	c1.57,2.3,3.51,4.29,5.81,5.97c0.1,0.07,0.25,0.05,0.32-0.05c0.05-0.07,0.06-0.16,0.01-0.24c-2.22-3.24-3.55-6.77-3.99-10.59
	C22.91,53.04,22.78,53.01,22.57,53.29z M34.81,55.82c-2.43,0.9-4.31,3.06-2.51,5.43c0.92,1.21,2.64,0.98,4.06,0.4
	c3.97-1.62,8.15-2.45,12.54-2.5c0.15,0,0.28-0.12,0.28-0.26V53.5c0-0.15-0.08-0.22-0.24-0.22C44.05,53.29,39.34,54.14,34.81,55.82z
	 M64.49,56.15c-4.64-1.91-9.53-2.86-14.65-2.87c-0.16,0-0.23,0.07-0.23,0.22l-0.02,5.4c0,0.14,0.08,0.21,0.23,0.22
	c4.27,0.06,8.34,0.86,12.21,2.4c1.89,0.75,3.7,1.08,4.78-0.75C67.97,58.8,66.48,56.96,64.49,56.15z M81.34,53.87
	c1.45,6.48,0.71,12.18-4.14,17.23c-0.27,0.28-0.85,0.73-1.2,1.15c-0.2,0.23-0.15,0.28,0.13,0.15c4.28-1.95,6.7-8.96,7.5-12.95
	c0.29-1.41-1.31-4.54-1.85-6.03c-0.04-0.12-0.18-0.19-0.31-0.15c-0.09,0.03-0.15,0.09-0.17,0.18
	C81.27,53.51,81.29,53.66,81.34,53.87z M76.7,59.97l1.36-1.58c0.11-0.13,0.14-0.27,0.09-0.42C77.69,56.4,77,54.9,76.1,53.5
	c-0.06-0.09-0.18-0.12-0.28-0.07c-0.06,0.03-0.09,0.09-0.1,0.15c-0.17,2.15,0.08,4.26,0.76,6.35C76.53,60.08,76.6,60.09,76.7,59.97z
	 M16.8,54.06c-1.18,2.64-1.13,5.64-0.21,8.32c0.03,0.08,0.12,0.12,0.2,0.09c0.07-0.02,0.11-0.08,0.11-0.15
	c-0.3-2.67-0.46-5.47,0.5-8.05c0.08-0.22-0.03-0.35-0.34-0.37C16.94,53.89,16.85,53.94,16.8,54.06z M68.14,75.17
	c2.58-0.58,5.6-0.96,7.37-2.84c0.76-0.81,1.51-1.63,2.23-2.47c4.2-4.82,4.17-9.39,3.33-15.27c-0.01-0.06-0.08-0.11-0.15-0.09
	c-0.05,0.01-0.09,0.05-0.1,0.1c-0.32,2.46-0.97,4.35-2.29,6.72c-1.15,2.05-2.27,4.11-3.36,6.18c-1.63,3.08-4.75,4.98-7.15,7.49
	C67.85,75.16,67.89,75.23,68.14,75.17z M19.83,68.27c-0.24,0.74-0.29,1.38-0.18,1.91c0.24,1.1,0.98,1.73,2.2,1.88
	c0.58,0.07,1.04-0.11,1.39-0.55c0.08-0.1,0.08-0.2,0.01-0.3c-0.56-0.8-0.5-1.48,0.17-2.04c0.27-0.16,0.38-0.29,0.32-0.37
	c-0.83-1.15-1.53-2.36-2.11-3.63c-0.49-1.07-0.92-2.69-1.55-3.99c-1.06-2.2-1.72-3.63-2.29-5.44c-0.26-0.85-0.44-0.83-0.52,0.05
	c-0.27,2.77-0.2,5.53,0.21,8.29c0.02,0.13,0.1,0.18,0.23,0.18c2-0.11,2.53,1.53,1.31,2.78c-0.08,0.08-0.08,0.21-0.01,0.3
	L19.83,68.27z M78.49,61.03l2.11-5.59c0.01-0.03,0-0.05-0.03-0.06l0,0l0,0c-0.38-0.12-1.16,1.03-1.74,2.57l-0.05,0.12
	c-0.58,1.54-0.75,2.89-0.37,3.01l0,0C78.45,61.07,78.48,61.06,78.49,61.03L78.49,61.03z M20.2,58.94c0.2-1.16-0.83-2.05-1.52-2.92
	c-0.03-0.04-0.09-0.05-0.14-0.02c-0.04,0.02-0.05,0.07-0.04,0.11l1.32,4.15c0.02,0.1,0.13,0.16,0.23,0.13
	c0.1-0.02,0.17-0.12,0.15-0.21l0,0C20.13,59.76,20.13,59.35,20.2,58.94z M75.17,56.85c-1.04,4.15-3.22,7.75-6.5,10.79
	c-0.16,0.14-0.13,0.18,0.07,0.11c0.21-0.07,0.41-0.18,0.58-0.32c2.5-1.99,4.74-4.22,6.69-6.7c0.09-0.11,0.11-0.22,0.09-0.35
	l-0.68-3.53C75.35,56.48,75.26,56.48,75.17,56.85z M37.25,77.62c2.3,1.02,7.88,2.09,10.77,0.84c0.08-0.04,0.12-0.13,0.07-0.21
	c-0.02-0.04-0.07-0.08-0.12-0.08c-3.06-0.37-5.36-2.03-8.23-2.92c-1.25-0.39-2.88-1.38-4.88-2.99c-1.9-1.52-4.34-3.96-7.31-7.31
	c-0.09-0.1-0.2-0.17-0.32-0.22c-2.72-0.99-4.9-3.85-6.43-5.79c-0.09-0.12-0.15-0.1-0.19,0.04c-0.51,2.16,1.1,3.94,2.78,5.91
	c1.08,1.27,3.27,3.15,6.56,5.66c0.1,0.08,0.22,0.12,0.34,0.14c2.19,0.29,3.75,2.31,2.2,4.09c-0.17,0.2-0.14,0.49,0.07,0.64
	c0.02,0.02,0.05,0.03,0.08,0.05C34.23,76.24,35.76,76.96,37.25,77.62z M77.8,59.77l0.05-0.41c0.01-0.04-0.02-0.08-0.06-0.08
	c-0.03-0.01-0.06,0.01-0.08,0.03l-0.24,0.34c-0.05,0.07-0.03,0.17,0.05,0.22c0.04,0.02,0.08,0.03,0.13,0.02
	c0.04-0.01,0.07-0.02,0.1-0.04C77.77,59.84,77.79,59.81,77.8,59.77z M76.81,60.36c-0.32,0.17-0.44,0.43-0.37,0.78
	c0.05,0.24,0.14,0.25,0.26,0.03l0.64-1.14c0.08-0.13,0.04-0.18-0.12-0.13c-0.13,0.04-0.21,0.11-0.23,0.22
	C76.97,60.23,76.91,60.31,76.81,60.36z M77.88,60.24c0.01-0.2-0.05-0.22-0.19-0.06c-0.97,1.15-1.42,2.45-1.35,3.91
	c0.01,0.12,0.05,0.13,0.12,0.03C77.33,62.95,77.8,61.65,77.88,60.24z M10.46,60.63l-0.19,1.71c-0.02,0.18,0.07,0.27,0.27,0.29
	l0.54,0.02c0.16,0.01,0.22-0.06,0.18-0.2l-0.52-1.83c-0.02-0.07-0.09-0.11-0.17-0.09C10.51,60.53,10.47,60.58,10.46,60.63z
	 M83.87,60.34c-1.27,4.49-3.02,10.01-7.72,12.47C75,73.41,73.94,74.14,73,75c-1.03,0.94-2.08,1.61-3.15,2.42
	c-0.13,0.1-0.11,0.14,0.05,0.12c5.46-0.45,11.03-2.34,12.92-7.6c1.14-3.16,1.87-6.26,1.18-9.61c-0.01-0.03-0.04-0.05-0.08-0.05
	C83.9,60.3,83.88,60.32,83.87,60.34z M76.33,61.68c0.04-0.04,0.04-0.11-0.01-0.15l0,0l-0.13-0.11c-0.05-0.04-0.12-0.04-0.16,0.01
	l-4.1,4.18c-0.04,0.04-0.04,0.11,0.01,0.15l0,0l0.13,0.11c0.05,0.04,0.12,0.04,0.16-0.01L76.33,61.68z M55.72,78.53
	c2.2-0.55,4.66-0.33,6.76-1.08c6.02-2.17,8.6-6.19,12.28-10.74c1.05-1.3,1.33-2.42,1.3-3.95c0-0.16-0.06-0.18-0.17-0.06
	c-2.3,2.52-5.02,4.56-8.18,6.12c-0.6,0.3-1.38,0.97-2.34,2.02c-2.75,2.99-6.16,5.39-9.76,7.45c-0.07,0.04-0.09,0.13-0.04,0.19
	C55.59,78.52,55.66,78.55,55.72,78.53z M10.98,66.8c0.81-0.05,1.4-0.94,1.32-1.98s-0.8-1.84-1.6-1.79l0,0
	c-0.81,0.05-1.4,0.94-1.32,1.98C9.46,66.05,10.17,66.85,10.98,66.8L10.98,66.8z M27.89,71.9c-1.56-1.85-2.95-3.74-4.18-5.68
	c-0.59-0.92-1.64-1.84-2.12-3.04c-0.02-0.05-0.06-0.1-0.11-0.13c-0.12-0.09-0.16-0.06-0.13,0.08c0.53,2,1.43,3.84,2.71,5.52
	c0.05,0.07,0.12,0.12,0.2,0.15l0.82,0.36c0.11,0.05,0.2,0.15,0.24,0.26c0.41,1.15,1.18,2.07,2.3,2.75c0.09,0.05,0.22,0.03,0.27-0.06
	C27.94,72.04,27.94,71.96,27.89,71.9z M18.36,66.83c0.59-0.1,0.97-0.67,0.85-1.27l0,0c-0.12-0.6-0.69-1.01-1.28-0.91
	s-0.97,0.67-0.85,1.27l0,0C17.19,66.53,17.77,66.93,18.36,66.83z M35.8,71.88l-1.94-1.17c-0.01-0.01-0.02,0-0.02,0.01
	c-0.02,0.03-0.03,0.06-0.04,0.1c0,0.01,0,0.01,0,0.02c3.87,3.68,9.54,6.15,15.2,5.58c0.13-0.01,0.19-0.08,0.19-0.2l-0.01-0.94
	c0-0.15-0.08-0.22-0.24-0.22c-3.15,0.04-6.17-0.48-9.08-1.56c-0.26-0.1-0.4-0.35-0.34-0.6c0.67-2.53,7.02-3.33,9.27-3.33
	c0.27,0,0.4-0.12,0.4-0.37l-0.01-4.13c0-0.12-0.07-0.18-0.2-0.18c-3.37,0.01-14.57,1.41-12.95,6.83c0.02,0.08-0.03,0.16-0.12,0.18
	C35.88,71.9,35.84,71.9,35.8,71.88z M62.65,71.81c0.57-1.86-0.02-3.27-1.77-4.23c-3.31-1.81-7.02-2.7-11.12-2.65
	c-0.1,0-0.15,0.05-0.15,0.15v4.22c0,0.13,0.07,0.2,0.22,0.21c2.49,0.07,8.68,0.75,9.54,3.54c0.04,0.13-0.02,0.26-0.13,0.32
	c-2.36,1.37-6.7,1.75-9.34,1.72c-0.19,0-0.28,0.08-0.27,0.25v0.78c0,0.15,0.09,0.22,0.25,0.21c3.96-0.22,7.68-1.2,11.16-2.96
	c0.05-0.03,0.09-0.01,0.1,0.04c0.01,0.04,0.01,0.07,0,0.1c-0.01,0.04-0.04,0.09-0.1,0.13c-1.77,1.19-3.64,1.74-5.48,2.47
	c-1.62,0.65-3.23,1.31-4.85,2c-0.08,0.04-0.08,0.07,0,0.1c1.5,0.64,2.87,0.66,4.1,0.05c3.31-1.65,6.57-4.02,9.78-7.1
	c0.05-0.04,0.07-0.13,0.07-0.27c0-0.04-0.02-0.05-0.06-0.03l-1.75,1.09C62.65,72.06,62.58,72.01,62.65,71.81z M21.46,73.56
	c-3.49-1.89-6.34-4.4-8.54-7.54c-0.06-0.09-0.19-0.12-0.29-0.06c-0.03,0.02-0.06,0.05-0.08,0.08c-0.32,0.56-0.8,0.94-1.45,1.14
	c-0.12,0.04-0.17,0.11-0.15,0.23c0.99,4.59,5.25,7.4,9.89,8.55c0.14,0.04,0.21-0.01,0.2-0.15c-0.06-0.65,0.11-1.25,0.52-1.79
	C21.71,73.83,21.68,73.68,21.46,73.56z M28.07,71.61c0.03,0.03,0.07,0.04,0.11,0.02l1.23-0.8c0.12-0.08,0.12-0.16,0.01-0.24
	c-1.79-1.29-3.45-2.72-4.99-4.27c-0.06-0.06-0.17-0.07-0.24-0.01c-0.01,0.01-0.02,0.02-0.03,0.03c-0.04,0.05-0.04,0.1-0.01,0.15
	C25.39,68.11,26.69,69.82,28.07,71.61z M75.05,67.26c0.04-0.06,0.03-0.14-0.03-0.18l0,0L75,67.07c-0.06-0.04-0.15-0.03-0.19,0.03
	l0,0l-2.74,3.49c-0.04,0.06-0.03,0.14,0.03,0.18l0,0l0.02,0.01c0.06,0.04,0.15,0.03,0.19-0.03l0,0L75.05,67.26z M19.26,68.28
	c-0.15,0-0.19,0.06-0.1,0.17l0.12,0.17c0.04,0.06,0.14,0.08,0.21,0.04c0.05-0.03,0.07-0.08,0.07-0.13
	C19.53,68.36,19.43,68.28,19.26,68.28z M25.18,70.2c0-0.49-0.43-0.89-0.96-0.89c-0.53,0-0.96,0.4-0.96,0.89s0.43,0.89,0.96,0.89
	S25.18,70.7,25.18,70.2z M25.3,70.96c-0.27,0.35-0.8,0.57-1.16,0.54c-0.53-0.04-0.58,0.12-0.15,0.46c1.07,0.85,2.23,1.6,3.47,2.27
	c0.14,0.08,0.21,0.04,0.2-0.12l-0.09-1.41c-0.01-0.09-0.05-0.17-0.12-0.22l-1.86-1.56C25.48,70.84,25.38,70.85,25.3,70.96z
	 M21.56,72.65c0.34,0.49,0.56,0.73,1.23,0.86c0.82,0.15,1.57,0.48,2.24,1c0.18,0.12,0.43,0.09,0.56-0.08
	c0.12-0.14,0.1-0.34-0.03-0.47l-2.07-1.82c-0.06-0.05-0.14-0.07-0.22-0.05l-1.62,0.38c-0.07,0.02-0.12,0.08-0.1,0.15
	C21.55,72.63,21.55,72.64,21.56,72.65z M27.09,74.57c0.06-0.09-0.17-0.33-0.51-0.53l0,0c-0.34-0.2-0.67-0.28-0.74-0.18
	c-0.06,0.09,0.17,0.33,0.51,0.53l0,0C26.7,74.58,27.03,74.67,27.09,74.57z M24.49,75.36c0-0.76-0.67-1.38-1.49-1.38l0,0
	c-0.82,0-1.49,0.62-1.49,1.38l0,0c0,0.76,0.67,1.38,1.49,1.38l0,0C23.82,76.74,24.49,76.12,24.49,75.36L24.49,75.36z M65.31,77.79
	l1.9,0.55c0.14,0.04,0.28,0.02,0.41-0.04c1.97-1.05,3.76-2.32,5.38-3.8c0.05-0.05,0.05-0.13,0-0.17c-0.04-0.03-0.09-0.05-0.14-0.03
	c-1.42,0.52-2.91,0.91-4.47,1.17c-1.52,0.25-2.26,1.04-3.16,2.08C65.12,77.66,65.15,77.74,65.31,77.79z M24.99,75.27l-0.3,1.14
	c-0.04,0.14,0.02,0.23,0.16,0.27c1.31,0.43,2.67,0.64,4.06,0.6c0.18,0,0.2-0.06,0.07-0.17c-0.83-0.69-1.69-1.37-2.57-2.02
	c-0.45-0.33-0.79-0.41-1.03-0.24C25.15,75.03,25.02,75.17,24.99,75.27z M31.37,75.56c-1.6,0.7-2.55-0.32-4-0.62
	c-0.07-0.01-0.13,0.03-0.14,0.09c-0.01,0.04,0.01,0.08,0.04,0.1c1.46,1.19,4.36,2,6.28,2.58c0.09,0.03,0.18-0.02,0.2-0.1
	c0.02-0.05,0.01-0.1-0.03-0.14l-1.69-1.94c-0.07-0.09-0.17-0.12-0.29-0.09C31.6,75.48,31.48,75.52,31.37,75.56z M49.53,77.82
	c-0.02,0.12,0.08,0.23,0.21,0.25c0.04,0,0.09,0,0.13-0.02l4.46-1.84c0.03-0.02,0.05-0.06,0.03-0.09c-0.01-0.02-0.04-0.04-0.07-0.03
	l-4.45,0.71c-0.12,0.02-0.19,0.09-0.2,0.2L49.53,77.82z M36.89,77.83l-3.58-1.62c-0.17-0.07-0.2-0.04-0.12,0.11
	c0.79,1.34,2.01,1.88,3.67,1.63C37.01,77.93,37.02,77.89,36.89,77.83z M65.71,76.16l-2.25,1.33c-0.04,0.02-0.05,0.07-0.03,0.1l0,0
	l0.02,0.03c0.17,0.24,0.81,0.14,1.45-0.24l0,0l0.08-0.05c0.63-0.37,1.01-0.88,0.85-1.12l-0.02-0.03
	C65.79,76.15,65.74,76.14,65.71,76.16z M38.81,81.43c-1.06-1.13-2.14-2.03-3.23-2.68c-0.5-0.3-1.31-0.58-2.43-0.82
	c-1.42-0.32-2.78-0.81-4.07-1.49c-0.06-0.03-0.14-0.01-0.17,0.04c-0.01,0.01-0.01,0.03-0.02,0.05c-0.01,0.05,0.02,0.1,0.08,0.15
	c3.03,2.15,6.25,3.81,9.66,5C39.03,81.8,39.08,81.72,38.81,81.43z M48.98,76.72c-1.61,0.26-3.21,0.18-4.79-0.24
	c-0.29-0.07-0.32-0.02-0.1,0.17c0.69,0.6,3.53,1.18,4.62,1.44c0.19,0.05,0.39-0.06,0.44-0.24c0.01-0.03,0.01-0.06,0.01-0.09
	l-0.01-0.92c0-0.07-0.06-0.12-0.13-0.13C49,76.72,48.99,76.72,48.98,76.72z M59.83,80.8c1.47-0.44,2.79-1.33,3.97-2.68
	c0.11-0.13,0.08-0.2-0.1-0.22c-0.56-0.04-1.1,0.05-1.64,0.25c-2.88,1.13-5.14,1.06-8.24,1.02c-1.55-0.02-2.73,0.71-4.06,1.32
	c-0.13,0.06-0.2,0.16-0.2,0.3l0.03,1.81c0.01,0.44,0.24,0.61,0.7,0.52C53.61,82.48,56.79,81.71,59.83,80.8z M61.2,81.35
	c1.94-0.68,3.79-1.54,5.56-2.59c0.08-0.05,0.1-0.15,0.05-0.22c-0.02-0.03-0.06-0.06-0.1-0.07l-1.87-0.43c-0.11-0.02-0.22,0-0.3,0.08
	c-1.25,1.15-2.62,2.16-4.1,3.04c-0.59,0.35-0.53,0.48,0.2,0.38C60.66,81.53,60.85,81.47,61.2,81.35z M60.13,78.24l-3.73,0.37
	c-0.07,0.01-0.12,0.07-0.11,0.13c0.01,0.05,0.05,0.09,0.1,0.1c1.01,0.23,3.02-0.09,3.8-0.46c0.04-0.02,0.06-0.06,0.04-0.1
	C60.21,78.25,60.17,78.23,60.13,78.24z M47.18,79.46c-3.16,0.05-6.26-0.31-9.3-1.06c-0.29-0.07-0.97-0.1-2.05-0.08
	c-0.22,0-0.24,0.06-0.06,0.18c3,1.96,10.02,3.21,13.23,1.91c0.25-0.1,0.37-0.37,0.27-0.61c-0.09-0.19-0.29-0.3-0.51-0.28
	C48.26,79.57,47.7,79.45,47.18,79.46z M49.76,78.99c0.12,0.09,0.26,0.15,0.42,0.18c0.54,0.11,1.06,0.03,1.56-0.22
	c0.16-0.08,0.15-0.13-0.02-0.15l-1.87-0.3c-0.06-0.01-0.13,0-0.17,0.04C49.49,78.66,49.52,78.81,49.76,78.99z M49.22,79.01
	l-0.05-0.4c-0.01-0.05-0.06-0.09-0.11-0.08l0,0l-0.07,0.01c-0.83,0.1-1.5,0.28-1.48,0.41l0,0l0.02,0.13
	c0.02,0.13,0.71,0.15,1.54,0.05l0.07-0.01C49.18,79.11,49.22,79.06,49.22,79.01L49.22,79.01z M49.51,79.8
	c-0.06,0.09-0.03,0.21,0.07,0.26c0.05,0.03,0.12,0.04,0.18,0.01l0.83-0.31c0.26-0.1,0.26-0.18-0.01-0.26
	C50.09,79.37,49.74,79.46,49.51,79.8z M48.8,80.83c-2.88,1.07-7.61,0.26-10.42-0.79c-0.07-0.03-0.16,0-0.19,0.07
	c-0.02,0.04-0.01,0.09,0.01,0.12c0.64,0.94,1.28,1.72,2.51,2.08c2.68,0.78,5.45,1.07,8.28,0.86c0.14-0.01,0.21-0.08,0.21-0.21
	l-0.02-2.02c0-0.13-0.07-0.18-0.2-0.16C48.92,80.79,48.86,80.81,48.8,80.83z M51.24,83.42c1.27-0.05,7.38-0.63,8.43-1.98
	c0.05-0.07,0.04-0.16-0.03-0.21c-0.04-0.03-0.1-0.04-0.15-0.02c-2.7,0.88-5.45,1.55-8.26,2.03c-0.05,0.01-0.08,0.07-0.07,0.11
	C51.16,83.39,51.2,83.41,51.24,83.42z M57.97,82.64c-2.51,0.87-5.43,1.16-8.11,1.08c-0.16-0.01-0.23,0.06-0.24,0.21l-0.05,2.05
	c0,0.16,0.08,0.24,0.25,0.25c3.19,0.08,5.91-1.42,8.28-3.38c0.05-0.04,0.07-0.11,0.02-0.16C58.09,82.64,58.02,82.62,57.97,82.64z
	 M42.27,83.04c-0.46-0.1-0.9-0.21-1.32-0.33c-0.05-0.02-0.1,0-0.12,0.05c-0.02,0.04,0,0.08,0.03,0.1c2.23,1.73,4.77,2.85,7.62,3.36
	c0.47,0.08,0.7-0.1,0.7-0.54v-1.75c0-0.13-0.07-0.2-0.21-0.19C46.7,83.77,44.47,83.53,42.27,83.04z"/>
</svg>
