<?xml version="1.0" encoding="utf-8"?>
<!-- Generator: Adobe Illustrator 27.9.0, SVG Export Plug-In . SVG Version: 6.00 Build 0)  -->
<svg version="1.1" id="Layer_1" xmlns="http://www.w3.org/2000/svg" xmlns:xlink="http://www.w3.org/1999/xlink" x="0px" y="0px"
	 viewBox="0 0 1280 1024" style="enable-background:new 0 0 1280 1024;" xml:space="preserve">
<style type="text/css">
	.st0{fill:#CC3804;}
	.st1{fill:#FDE5B4;}
	.st2{fill:#893900;}
	.st3{fill:#FF6125;}
	.st4{fill:#662B00;}
	.st5{fill:#821201;}
</style>
<path class="st0" d="M677.9,185.75c-6.98-9.68,1.75-23.4-5.24-33.09c0,0-0.87-0.81-0.87,0c0,0,0,0,0,0.81l-3.49,87.15
	c0,3.23-1.75,6.46-5.24,8.07c-13.09,7.26-29.68,3.23-48.89-10.49c-1.75-77.47-1.75-148.48,1.75-213.04
	c1.75-37.12,61.98-33.89,61.98,14.53C678.77,87.3,678.77,136.52,677.9,185.75z"/>
<path class="st1" d="M474.5,138.14c0,13.72-12.22,25.02-27.06,25.02h-3.49c-14.84,0-27.06-11.3-27.06-25.02V84.07
	c0-13.72,12.22-25.02,27.06-25.02h3.49c14.84,0,27.06,11.3,27.06,25.02V138.14z"/>
<path class="st2" d="M677.9,185.75l-1.75,133.96l-7.86,129.92c0,2.42-1.75,4.84-4.36,6.46l-28.81,16.95
	c-1.75,0.81-4.36,0.81-6.11-0.81l-15.71-16.14V237.39c19.2,14.53,34.92,17.75,48.89,10.49c3.49-1.61,5.24-4.84,5.24-8.07l3.49-87.15
	c0,0,0-0.81,0.87-0.81h0.87C679.64,162.35,670.91,176.06,677.9,185.75z"/>
<path class="st1" d="M874.31,296.3c0,14.53-12.22,25.82-27.93,25.02h-2.62c-15.71,0-27.06-11.3-27.06-25.82l0.87-115.4
	c0-14.53,12.22-25.82,27.93-25.02h2.62c15.71,0,27.06,11.3,27.06,25.82L874.31,296.3z"/>
<path class="st3" d="M575.76,372.16l-5.24-15.33c-0.87-1.61-2.62-2.42-4.36-2.42c-0.87,0-1.75,0.81-1.75,1.61l-3.49,9.68
	c-0.87,3.23-3.49,4.84-6.98,4.84c-28.81-1.61-42.77,8.07-41.03,28.24l-0.87-71.01c0-42.77,0.87-85.54,1.75-128.31
	c0.87-33.09,41.9-46.8,57.61-17.75c3.49,5.65,5.24,15.33,5.24,29.05C577.51,263.22,577.51,317.28,575.76,372.16z"/>
<path class="st3" d="M376.73,443.98c-2.62-2.42-4.36-7.26-5.24-12.1c0-3.23-1.75-3.23-3.49-1.61c-8.73,8.07-19.2,12.1-31.43,12.1
	c-2.62,0-5.24-0.81-6.98-3.23c-5.24-7.26-10.48-7.26-14.84,0c-0.87-54.87-0.87-108.94-1.75-163.81c0-14.53,5.24-25.02,14.84-31.47
	c20.95-13.72,48.89,1.61,49.76,27.44C377.6,329.39,377.6,386.68,376.73,443.98z"/>
<path class="st4" d="M779.16,532.74l0.87,213.85c0,21.79,5.24,80.7-6.11,97.64c-16.59,25.82-57.61,14.53-57.61-12.91
	c0-76.66-0.87-153.32-0.87-229.99c0.87-109.75,1.75-219.5,1.75-329.24c0-40.35,61.98-40.35,61.98,4.03
	C778.29,361.67,779.16,447.21,779.16,532.74z"/>
<path class="st5" d="M1275.87,573.9c-6.11,28.24-21.82,40.35-46.27,34.7c-2.62-0.81-5.24-1.61-6.98-4.03
	c-7.86-8.88-11.35-18.56-12.22-30.66c-0.87-8.88-8.73-15.33-18.33-15.33c-2.62,0-6.11,0.81-8.73,2.42
	c-26.19,15.33-1.75,52.45-37.54,58.91c-34.92,6.46-33.17-25.02-34.92-45.19c-0.87-8.88-8.73-15.33-18.33-14.53h-0.87
	c-10.48,1.61-16.59,7.26-16.59,16.95c-1.75,35.51-1.75,71.01-1.75,106.52c0.87,33.09-60.23,42.77-61.11-8.07
	c0-32.28-0.87-64.56-1.75-97.64c0-12.1-8.73-19.37-21.82-17.75c-8.73,0.81-15.71,8.07-15.71,16.14c0,66.98,0,134.76-0.87,204.16
	c0,34.7-59.36,40.35-60.23-4.03c-0.87-65.36-0.87-131.54-0.87-200.13c0-6.46-4.36-12.91-11.35-15.33
	c-16.59-5.65-23.57,4.84-24.44,18.56c-0.87,27.44-1.75,54.07-1.75,80.7c-0.87,40.35-57.61,41.96-57.61,1.61
	c-0.87-37.93-0.87-76.66-0.87-114.59c0-32.28,0-65.36,0-97.64c0-12.91,1.75-21.79,4.36-26.63c8.73-16.14,32.3-20.17,46.27-6.46
	c13.97,13.72,7.86,61.33,10.48,79.89c0.87,8.88,8.73,14.53,18.33,13.72c1.75,0,2.62-0.81,4.36-0.81c9.6-3.23,13.97-9.68,13.97-20.98
	c-0.87-76.66-0.87-128.31,0-154.94c0.87-26.63,40.16-37.12,55-15.33c3.49,5.65,5.24,14.53,5.24,26.63
	c0,49.23,0.87,98.45,0.87,148.48c0,9.68,8.73,16.95,18.33,16.95c11.35,0,18.33-11.3,18.33-20.98c0.87-21.79-4.36-66.17,5.24-83.92
	c9.6-16.14,34.05-20.17,47.14-6.46c14.84,14.53,9.6,73.43,9.6,92.8c0,8.07,5.24,15.33,13.97,17.75
	c26.19,8.07,27.06-27.44,27.93-41.16c0-2.42,1.75-4.84,3.49-6.46c16.59-13.72,43.65-10.49,48.89,11.3
	c2.62,10.49,1.75,25.82,10.48,33.09c16.59,14.53,33.17-7.26,41.9-17.75c1.75-1.61,3.49-3.23,6.11-4.03
	C1281.98,477.06,1285.47,540.01,1275.87,573.9z"/>
<path class="st4" d="M676.15,319.7l1.75,359.91c0.87,102.49,0.87,204.16,1.75,306.65c0,23.4-27.93,40.35-52.38,26.63
	c-10.48-6.46-16.59-18.56-15.71-36.31c2.62-152.52,3.49-305.84,2.62-458.36v-61.33l15.71,16.14c1.75,1.61,4.36,1.61,6.11,0.81
	l28.81-16.95c2.62-1.61,3.49-3.23,4.36-6.46L676.15,319.7z"/>
<path class="st4" d="M575.76,372.16l0.87,50.84c-0.87,133.15-0.87,266.3,0,399.45c0,25.82-22.7,57.29-52.38,32.28
	c-7.86-6.46-11.35-13.72-11.35-21.79c1.75-125.08,1.75-250.16,0-375.24l0.87-58.91c-1.75-20.17,12.22-29.86,41.03-28.24
	c3.49,0,6.11-1.61,6.98-4.84l3.49-9.68c0.87-1.61,2.62-2.42,4.36-1.61c0.87,0,1.75,0.81,2.62,2.42L575.76,372.16z"/>
<path class="st2" d="M478.86,423c-0.87,83.92-1.75,165.43-0.87,244.51c0,25.82-41.03,37.93-55.87,14.53
	c-12.22-18.56-5.24-72.63-4.36-95.22c0.87-16.95-7.86-25.02-25.32-24.21c-7.86,0.81-13.97,6.46-13.97,13.72
	c-0.87,36.31-0.87,71.01,0.87,104.91c1.75,46.8-61.98,59.72-62.85,12.1c-1.75-54.87-1.75-90.38-0.87-106.52
	c0.87-30.66-36.66-33.09-38.41-8.07c-0.87,16.95,0.87,39.54-10.48,51.65c-12.22,12.91-39.28,11.3-48.01-4.84
	c-6.98-12.1-4.36-34.7-5.24-48.42c0-5.65-4.36-11.3-10.48-13.72c-33.17-12.1-26.19,27.44-34.05,41.96
	c-9.6,18.56-35.79,20.17-47.14,3.23c-6.11-8.88-6.98-23.4-9.6-33.89c-2.62-8.88-12.22-14.53-21.82-12.1
	c-2.62,0.81-5.24,1.61-6.98,3.23l-28.81,20.98c-0.87,0.81-1.75,0.81-2.62,0.81c-72.46-5.65-67.22-96.84,3.49-93.61
	c2.62,0,4.36,0.81,6.98,2.42l23.57,16.95c1.75,0.81,3.49,1.61,5.24,1.61c26.19,0,25.32-37.93,31.43-50.84
	c45.39-23.4,48.89,8.88,55,37.93c1.75,8.88,10.48,14.53,20.08,12.91h0.87c9.6-1.61,13.97-7.26,14.84-16.14
	c1.75-23.4,2.62-46.8,2.62-70.21c0-27.44,34.92-41.96,53.25-20.17c13.09,15.33,7.86,66.98,8.73,87.15
	c0.87,14.53,13.09,24.21,28.81,16.14c6.11-2.42,9.6-8.07,9.6-13.72v-57.29c5.24-7.26,9.6-7.26,14.84,0
	c1.75,2.42,4.36,3.23,6.98,3.23c12.22,0,23.57-4.03,31.43-12.1c1.75-2.42,3.49-1.61,3.49,1.61c0.87,5.65,1.75,9.68,5.24,12.1
	c0,16.14,0.87,33.09,1.75,50.03c1.75,32.28,39.28,24.21,38.41-5.65c-0.87-12.91-4.36-66.17,6.11-83.12
	c10.48-16.95,35.79-17.75,48.01-2.42C475.37,408.47,477.99,415.73,478.86,423z"/>
<path class="st5" d="M859.47,783.71c14.84,17.75,19.2,46,13.97,83.92c0.87,20.98,1.75,43.58,1.75,65.36
	c0,37.93-55.87,44.38-56.74,6.46c-0.87-41.16-0.87-82.31,0-122.66C818.44,793.4,832.41,782.1,859.47,783.71z"/>
</svg>
